<svg width="28" height="44" viewBox="0 0 28 44" fill="none" xmlns="http://www.w3.org/2000/svg">
<ellipse opacity="0.3" cx="13.9998" cy="40.8654" rx="7.33333" ry="2.66667" fill="#4C545E"/>
<path d="M14 0.19873C6.26 0.19873 0 6.45873 0 14.1987C0 25.3555 10.3728 27.292 13.4379 41.4392C13.5385 41.9037 14.4615 41.9037 14.5621 41.4392C17.6272 27.292 28 25.3555 28 14.1987C28 6.45873 21.74 0.19873 14 0.19873Z" fill="#2ED47A"/>
<circle cx="14.0002" cy="14.1988" r="10.6667" fill="#FAFAFA"/>
<path d="M8.918 7.85873L7.994 8.74073C9.002 9.55273 9.772 10.2947 10.318 10.9947L11.27 10.0427C10.626 9.31473 9.842 8.58673 8.918 7.85873ZM16.926 20.4027H20.132L20.454 19.0867C20.076 19.1147 19.53 19.1427 18.83 19.1567C18.116 19.1707 17.416 19.1847 16.744 19.1847C15.666 19.1847 14.742 19.1707 13.958 19.1567C13.146 19.1287 12.544 19.0027 12.138 18.8067C11.788 18.6247 11.452 18.3447 11.144 17.9667C11.074 17.8827 11.004 17.8267 10.948 17.7707V12.4647H7.812V13.6967H9.702V17.6587C9.142 17.9387 8.512 18.6527 7.812 19.7867L8.792 20.6967C9.506 19.4367 10.01 18.8067 10.29 18.8067C10.458 18.8067 10.626 18.9187 10.808 19.1567C11.228 19.6327 11.704 19.9687 12.264 20.1367C12.838 20.2767 13.566 20.3607 14.462 20.3747C15.344 20.3887 16.17 20.4027 16.926 20.4027ZM12.096 9.81873V11.0647H13.636V12.0587C13.636 12.5767 13.608 13.0667 13.552 13.5427H11.606V14.8027H13.3C12.992 15.9227 12.446 16.7627 11.662 17.3227L12.46 18.3867C13.496 17.6027 14.196 16.4127 14.588 14.8027H16.814V18.6107H18.102V14.8027H20.216V13.5427H18.102V11.0647H19.768V9.81873H18.102V7.71873H16.814V9.81873H14.91V7.70473H13.636V9.81873H12.096ZM14.91 11.0647H16.814V13.5427H14.812C14.868 12.9827 14.91 12.3947 14.91 11.7507V11.0647Z" fill="#1DD397"/>
</svg>
