<svg width="28" height="45" viewBox="0 0 28 45" fill="none" xmlns="http://www.w3.org/2000/svg">
<ellipse opacity="0.3" cx="13.9998" cy="41.6601" rx="7.33333" ry="2.66667" fill="#4C545E"/>
<path d="M14 0.993408C6.26 0.993408 0 7.25341 0 14.9934C0 26.1502 10.3728 28.0867 13.4379 42.2339C13.5385 42.6984 14.4615 42.6984 14.5621 42.2339C17.6272 28.0867 28 26.1502 28 14.9934C28 7.25341 21.74 0.993408 14 0.993408Z" fill="#109CF1"/>
<circle cx="14.0002" cy="14.9934" r="10.6667" fill="#FAFAFA"/>
<path d="M11.83 9.92741V11.1454H13.37V12.5034H11.284V13.7354H13.3C12.796 14.5754 11.914 15.3314 10.654 16.0314L11.34 17.1514C11.844 16.8434 12.306 16.5074 12.726 16.1434V19.9794C12.726 20.7634 13.174 21.1694 14.084 21.1694H18.606C19.25 21.1414 19.656 20.8894 19.838 20.3994C19.95 20.0914 20.048 19.5874 20.132 18.8874L18.872 18.4814C18.816 19.1254 18.746 19.5174 18.676 19.6574C18.592 19.8394 18.424 19.9374 18.186 19.9514H14.602C14.21 19.9514 14.028 19.7834 14.028 19.4614V18.3974H18.27V15.6534C18.746 16.0734 19.334 16.4654 20.006 16.8294L20.566 15.6814C19.446 15.2054 18.592 14.5474 18.032 13.7354H20.104V12.5034H17.99V11.1454H19.656V9.92741H17.99V8.55541H16.702V9.92741H14.658V8.55541H13.37V9.92741H11.83ZM13.804 14.9954C14.112 14.6034 14.364 14.1834 14.56 13.7354H16.73C16.954 14.1834 17.248 14.6034 17.612 14.9954H13.804ZM14.658 12.5034V11.1454H16.702V12.5034H14.658ZM14.028 17.2774V16.1014H17.024V17.2774H14.028ZM8.806 8.72341L7.868 9.63341C8.932 10.3894 9.758 11.1034 10.346 11.7614L11.284 10.8374C10.612 10.1374 9.786 9.42341 8.806 8.72341ZM8.54 12.1674L7.616 13.0774C8.596 13.8054 9.366 14.4774 9.926 15.1214L10.85 14.1834C10.234 13.5114 9.464 12.8394 8.54 12.1674ZM9.618 16.3254C9.086 17.8654 8.456 19.3634 7.742 20.8334L9.072 21.4214C9.716 19.9934 10.304 18.4534 10.822 16.8014L9.618 16.3254Z" fill="#109CF1"/>
</svg>
