<svg width="28" height="44" viewBox="0 0 28 44" fill="none" xmlns="http://www.w3.org/2000/svg">
<ellipse opacity="0.3" cx="13.9998" cy="40.6667" rx="7.33333" ry="2.66667" fill="#4C545E"/>
<path d="M14 0C6.26 0 0 6.26 0 14C0 25.1568 10.3728 27.0933 13.4379 41.2405C13.5385 41.705 14.4615 41.705 14.5621 41.2405C17.6272 27.0933 28 25.1568 28 14C28 6.26 21.74 0 14 0Z" fill="#FD9E32"/>
<circle cx="14.0002" cy="14" r="10.6667" fill="#FAFAFA"/>
<path d="M17.612 12.28H14.686V7.506H13.314V12.28H10.388V8.57H9.044V13.568H13.314V18.398H9.688V14.688H8.358V20.344H9.688V19.672H18.312V20.344H19.642V14.688H18.312V18.398H14.686V13.568H18.956V8.57H17.612V12.28Z" fill="#FD9E32"/>
</svg>
